<svg xmlns="http://www.w3.org/2000/svg" xmlns:xlink="http://www.w3.org/1999/xlink" width="26" height="22" viewBox="0 0 26 22"><defs><path id="cw0na" d="M855 43l-5.01.01c0 .96 0 2.48-.02 2.61-.04.26-.68.51-.96.3-.7-.58-1.01-1.2-2.07-2.92H842c-.83 0-.98-.32-.98-1.15v-.87l1.03.03-.04.98 5.93.01 1.06 2v-2h6v-8.98h-6.02v-.98h5.52c.83 0 1.5.33 1.5 1.16v8.65c0 .83-.17 1.15-1 1.15zm-13.98-2.02H839.4c-.7.6-1.98 1.73-2.67 2.3-.28.23-.89-.03-.93-.28a33.1 33.1 0 0 1-.01-2.02h-4.68c-.82 0-1.12-.3-1.12-1.13V25.1c0-.83.14-1.1.97-1.1h16.98c.83 0 1.03.24 1.03 1.07v14.15c0 .83-.76 1.76-1.6 1.76h-6.36c-.09 0-.1 0 0 0zm6.94-1l.03-14.95H831v14.95h5.95l.01 1.96 2.02-1.96zm-13.3-4.4v-.04c0-.28.23-.55.5-.55h9.07c.29 0 .51.28.51.57v.02c0 .29-.22.45-.5.45h-9.07c-.28 0-.51-.16-.51-.45zm7.33-5.55h-6.82c-.28 0-.51-.16-.51-.44v-.04c0-.29.23-.55.5-.55H842c.28 0 .5.28.5.56v.03c0 .28-.22.44-.5.44zm-6.82 1.98h4.57c.28 0 .51.25.51.54v.02c0 .28-.23.44-.5.44h-4.58c-.28 0-.51-.16-.51-.44v-.04c0-.29.23-.52.5-.52z"/></defs><g><g transform="translate(-830 -24)"><use fill="#fff" xlink:href="#cw0na"/></g></g></svg>