<svg xmlns="http://www.w3.org/2000/svg" xmlns:xlink="http://www.w3.org/1999/xlink" width="24" height="24" viewBox="0 0 24 24"><defs><path id="br0qa" d="M899.92 42.68a.7.7 0 0 1-.64.37h-22.54a.7.7 0 0 1-.64-.37c-.07-.12-.1-.38-.1-.5a.7.7 0 0 1 .15-.4 16.35 16.35 0 0 0 2.1-4.37c.49-1.54 1.37-3.5 1.75-6.41.22-1.7.47-3.39 1.24-4.3a8.25 8.25 0 0 1 4.1-2.57c.13-.61.44-1.12.94-1.52.5-.4 1.08-.6 1.72-.6.65 0 1.22.2 1.73.6.5.4.82.9.95 1.51a8.24 8.24 0 0 1 4.09 2.58 8.01 8.01 0 0 1 1.7 4.04c.38 2.91.8 5.14 1.28 6.67a17.09 17.09 0 0 0 2.12 4.53c.09.12.13.25.13.39 0 .11-.02.23-.08.35zm-3.75-5.59c-.42-1.56-.8-3.62-1.16-6.17a6.67 6.67 0 0 0-1.44-3.4 7.23 7.23 0 0 0-3.73-2.12.72.72 0 0 1-.56-.7v-.02c0-.69-.56-1.24-1.28-1.24-.7 0-1.29.55-1.29 1.24v.03a.7.7 0 0 1-.53.68c-.9.2-1.68.5-2.58 1.1a6.02 6.02 0 0 0-2.6 4.43 57.25 57.25 0 0 1-1.16 6.18A21.26 21.26 0 0 1 878 42h20a21.85 21.85 0 0 1-1.83-4.91zm-6.66 8.28c-.41.42-.9.64-1.5.64-.59 0-1.09-.21-1.52-.64-.42-.4-.62-.9-.62-1.48h4.26c0 .58-.21 1.07-.62 1.48z"/></defs><g><g transform="translate(-876 -22)"><use fill="#fff" xlink:href="#br0qa"/></g></g></svg>