<svg xmlns="http://www.w3.org/2000/svg" xmlns:xlink="http://www.w3.org/1999/xlink" width="19" height="24" viewBox="0 0 19 24"><defs><path id="yerka" d="M224.5 258h-16a1.5 1.5 0 0 1-1.5-1.5v-21c0-.83.67-1.5 1.5-1.5h16c.83 0 1.5.67 1.5 1.5v21c0 .83-.67 1.5-1.5 1.5zm-16-23a.5.5 0 0 0-.5.5v21c0 .28.22.5.5.5h16a.5.5 0 0 0 .5-.5v-21a.5.5 0 0 0-.5-.5zm14.5 8h-13v-2h13zm0-4h-9v-2h9zm0 16h-13v-2h13zm0-4h-13v-2h13zm0-4h-13v-2h13z"/></defs><g><g transform="translate(-207 -234)"><use fill="#c7cdd9" xlink:href="#yerka"/></g></g></svg>