<svg xmlns="http://www.w3.org/2000/svg" xmlns:xlink="http://www.w3.org/1999/xlink" width="66" height="68" viewBox="0 0 66 68"><defs><path id="qm16a" d="M861.4 1052.9h-48.49c-.9 0-1.62-.72-1.62-1.62v-63.95c0-.9.73-1.63 1.62-1.63h18.44c.9 0 1.63.73 1.63 1.63v16.3l7.27-3.25c.45-.2.98-.2 1.41.04l6.85 3.55v-16.64c0-.9.73-1.63 1.63-1.63h11.27c.9 0 1.62.73 1.62 1.63v63.95c0 .9-.73 1.63-1.62 1.63zm-55.82 0h-6.48c-.9 0-1.62-.72-1.62-1.62v-63.95c0-.9.72-1.63 1.62-1.63h6.48c.9 0 1.62.73 1.62 1.63v63.95c0 .9-.73 1.63-1.62 1.63z"/></defs><g><g transform="translate(-797 -985)"><use fill="#65aacd" xlink:href="#qm16a"/></g></g></svg>