<svg xmlns="http://www.w3.org/2000/svg" xmlns:xlink="http://www.w3.org/1999/xlink" width="72" height="71" viewBox="0 0 72 71"><defs><path id="e8jma" d="M552.94 1423.73v39.13c0 5.64-4.58 10.21-10.21 10.21h-51.09a10.22 10.22 0 0 1-10.21-10.2v-39.14c0-5.63 4.58-10.21 10.21-10.21h11.07v-4.14c0-4.08 4.04-6.92 7.66-6.92h14.9c3.7 0 6.39 2.97 6.39 7.05v4h11.07c5.63 0 10.21 4.59 10.21 10.22zm-17.99 20.72a17.5 17.5 0 0 0-17.47-17.46 17.5 17.5 0 0 0-17.48 17.46 17.5 17.5 0 0 0 17.48 17.47 17.5 17.5 0 0 0 17.47-17.47zm-6.7-34.94c0-1.81-.92-3.65-2.98-3.65h-14.9c-1.97 0-4.25 1.54-4.25 3.52v4.14h22.13zm-10.77 20.88c7.75 0 14.07 6.31 14.07 14.06a14.08 14.08 0 0 1-28.15 0c0-7.75 6.31-14.06 14.08-14.06zm8.25 15.3v-3.63h-6.43v-6.48h-3.65v6.48h-6.43v3.64h6.43v6.4h3.65v-6.4z"/></defs><g><g transform="translate(-481 -1402)"><use fill="#65aacd" xlink:href="#e8jma"/></g></g></svg>