<svg xmlns="http://www.w3.org/2000/svg" xmlns:xlink="http://www.w3.org/1999/xlink" width="65" height="69" viewBox="0 0 65 69"><defs><path id="fg3la" d="M499.13 1009.92a8.54 8.54 0 0 1-.57-12.07l9.2-10.11a8.55 8.55 0 0 1 12.06-.58m25.3 22.99a8.54 8.54 0 0 1 .57 12.07l-9.2 10.1a8.55 8.55 0 0 1-12.07.58m-10.58-6.15l-21.97 24.84a4.91 4.91 0 0 1-6.94.33l-.32-.28a4.91 4.91 0 0 1-.33-6.94l21.98-24.84m16.26 11.32l-21.5-19.54 20.7-22.75 21.5 19.54z"/></defs><g><g transform="translate(-483 -985)"><use fill="#65aacd" xlink:href="#fg3la"/></g></g></svg>