<svg xmlns="http://www.w3.org/2000/svg" xmlns:xlink="http://www.w3.org/1999/xlink" width="69" height="66" viewBox="0 0 69 66"><defs><path id="ucrya" d="M707.24 1463.58h-.03l.03.3c0 .64-.5 1.26-1.45 1.85-4.21 2.63-17.22 4.55-32.6 4.55-15.39 0-28.4-1.92-32.61-4.55-.88-.55-1.37-1.12-1.44-1.72v-7.54c0-.15.02-.29.07-.43.17-.49.64-.97 1.37-1.42.8.5 1.92.98 3.33 1.42 2.99.95 7.23 1.73 12.3 2.28 4.99.55 10.79.86 16.98.86 6.18 0 11.98-.31 16.98-.86 5.07-.55 9.3-1.33 12.3-2.28a14.6 14.6 0 0 0 3.32-1.42c.74.45 1.2.93 1.38 1.42.05.14.07.28.07.43zm0-7.11c0 1.37-6.55 2.43-6.25 3.7 3.94-1.05 6.25-2.33 6.25-3.7zm0-7.7h-.03l.03.29c0 .65-.5 1.27-1.45 1.85a18.4 18.4 0 0 1-4.8 1.86c-6.17 1.63-16.32 2.7-27.8 2.7-11.49 0-21.64-1.07-27.81-2.7a18.4 18.4 0 0 1-4.8-1.86c-.87-.54-1.37-1.1-1.44-1.7v-.15-7.4-.14c.07-.6.57-1.18 1.45-1.71a17.1 17.1 0 0 0 4.26 1.7c2.91.82 6.8 1.5 11.35 2 5 .54 10.8.85 16.99.85 6.18 0 11.98-.3 16.98-.85 4.56-.5 8.44-1.18 11.35-2a17.1 17.1 0 0 0 4.27-1.7c.87.53 1.38 1.1 1.44 1.7l.01.15zm0-21.78v7.26c0 .64-.5 1.27-1.45 1.86-1.07.66-2.7 1.28-4.8 1.84-6.17 1.64-16.32 2.71-27.8 2.71-11.49 0-21.64-1.07-27.81-2.7a18.83 18.83 0 0 1-4.8-1.85c-.73-.46-1.2-.94-1.37-1.43a1.26 1.26 0 0 1-.08-.43V1427h.08a1.25 1.25 0 0 1-.08-.43c0-.59.43-1.17 1.24-1.7 1.14.78 3.07 1.5 5.6 2.13 2.76.7 6.26 1.28 10.27 1.7 5 .56 10.77.86 16.95.86 6.16 0 11.95-.3 16.94-.85 4-.43 7.5-1 10.27-1.71 2.53-.63 4.46-1.35 5.6-2.14.82.54 1.24 1.12 1.24 1.71 0 .15-.02.29-.07.43zm0-7.83h-.13c.09.18.13.38.13.57 0 .59-.42 1.17-1.23 1.7-.9.62-2.26 1.2-4.01 1.72-6.04 1.79-16.68 2.99-28.81 2.99-12.14 0-22.78-1.2-28.81-3a14.78 14.78 0 0 1-4.01-1.7c-.81-.54-1.24-1.12-1.24-1.71v-.15-7.54c0-.15.03-.28.08-.43 1.16-3.34 15.93-5.98 33.98-5.98 18.05 0 32.82 2.64 33.98 5.98.05.15.07.28.07.43zm-61.86 26.2c-3.93-1.04-6.25-2.32-6.25-3.7 0 1.38 2.32 2.66 6.25 3.7zm.59-29.48c-4.3-1.06-6.84-2.4-6.84-3.84 0 1.44 2.55 2.78 6.84 3.84z"/></defs><g><g transform="translate(-639 -1405)"><use fill="#65aacd" xlink:href="#ucrya"/></g></g></svg>