<svg xmlns="http://www.w3.org/2000/svg" xmlns:xlink="http://www.w3.org/1999/xlink" width="73" height="71" viewBox="0 0 73 71"><defs><path id="5snia" d="M701.84 1044.32c0 5.66-4.6 10.26-10.27 10.26h-37.65c-5.67 0-10.27-4.6-10.27-10.26v-42.74l-4.4 2.1a1.7 1.7 0 1 1-1.47-3.09l6.7-3.21 27.53-13.17a1.65 1.65 0 0 1 1.47 0l27.37 13.1 6.86 3.28a1.7 1.7 0 0 1 .8 2.29 1.7 1.7 0 0 1-2.28.8l-4.4-2.1zm-12.4-30.2l-5.44-5.45a1.25 1.25 0 0 0-.9-.37c-.35 0-.67.13-.91.36l-1.82 1.82c-.5.5-.5 1.3 0 1.81l5.43 5.46c.48.47 1.33.48 1.81 0l1.82-1.8c.5-.51.5-1.33 0-1.82zm-31.28 24.56c-.03.32.07.6.27.81.18.2.46.32.77.32h.08l5.06-.35c.84-.06 2.05-.61 2.65-1.2l16.38-16.29c.24-.24.37-.56.37-.9 0-.35-.13-.67-.37-.91l-5.43-5.46a1.28 1.28 0 0 0-1.82 0l-16.38 16.28c-.59.6-1.14 1.8-1.21 2.65zM643.65 999z"/></defs><g><g transform="translate(-636 -984)"><use fill="#65aacd" xlink:href="#5snia"/></g></g></svg>