<svg xmlns="http://www.w3.org/2000/svg" xmlns:xlink="http://www.w3.org/1999/xlink" width="71" height="74" viewBox="0 0 71 74"><defs><path id="51xfa" d="M536.46 629.02a14.1 14.1 0 0 1 14.11 14.07 14.12 14.12 0 0 1-28.23 0 14.1 14.1 0 0 1 14.12-14.07zm10.71 14.07a10.72 10.72 0 0 0-21.43 0 10.71 10.71 0 0 0 21.43 0zm-5.32-1.1v2.33h-4.12v4.09h-2.33v-4.09h-4.13V642h4.13v-4.14h2.33V642zm-14.98-31.7a26.7 26.7 0 0 1-1.46 16.32 38.97 38.97 0 0 1-5.14 16.32v7.24l1.35-.27 2.52 4.47 12.75 6.29-.06 1.1c-.07 1.53-1.54 2.52-2 2.78a51.54 51.54 0 0 1-26.36 7.23 51.54 51.54 0 0 1-26.27-7.17l-.17-.11c-.46-.36-1.56-1.3-1.82-2.42l-.3-1.34 13.03-6.02 1.98-4.84 1.63.33v-7.3c-2.76-4.32-4.54-10.06-4.87-16.47l.05.11-.05-.1c-1.72-4.89-2.64-12.5-.63-17.8 1.73-4.49 5.9-6.1 7.25-6.5a17.2 17.2 0 0 1 10.79-3.55c8.54 0 16.35 5.14 17.78 11.7zm-31.85 13.92c0 12.63 5.87 22.7 13.64 23.44 1.73.16 3.49-.56 5.24-2.13 4.58-4.11 8.13-13.28 8.23-21.33-.22-4.2-1.89-6.66-2.83-7.73a18.36 18.36 0 0 1-18.84-3.96c-4.69 1.35-5.39 8.45-5.45 11.71-.03 1 .01 1.63.01 1.65 0-.02-.04-.66-.01-1.65zm13.18 28.34l8.67-1.71v-3.46c-.23.23-.46.45-.7.66-2.21 1.99-4.63 3.02-7.04 3.02-.26 0-.52-.02-.78-.04a14.2 14.2 0 0 1-8.4-3.98v3.84z"/></defs><g><g transform="translate(-480 -598)"><use fill="#65aacd" xlink:href="#51xfa"/></g></g></svg>