<svg xmlns="http://www.w3.org/2000/svg" xmlns:xlink="http://www.w3.org/1999/xlink" width="72" height="72" viewBox="0 0 72 72"><defs><path id="geqva" d="M533.4 415.99a1.7 1.7 0 0 0-3.24-1.01l-6.79 21.8a1.7 1.7 0 0 0 3.24 1zm-16.04 21v-22.07a1.7 1.7 0 0 0-3.4 0v22.07a1.7 1.7 0 0 0 3.4 0zm-10.52 1.9a1.7 1.7 0 0 0 1.11-2.12l-6.78-21.8a1.7 1.7 0 0 0-3.24 1.02l6.78 21.8a1.7 1.7 0 0 0 2.13 1.1zm44.13-36.84c.32.45.4 1.03.2 1.55l-16.95 47.55a1.68 1.68 0 0 1-1.6 1.13H498.7c-.72 0-1.35-.45-1.6-1.13l-16.95-47.55a1.69 1.69 0 0 1 1.6-2.27h67.83c.56 0 1.07.27 1.39.72zm-69.55-17.73a1.7 1.7 0 1 1 .64-3.33l32.4 6.35.98-3.46a1.7 1.7 0 0 1 3.27.94l-.91 3.17 32.1 6.3a1.7 1.7 0 0 1-.32 3.37c-.1 0-.2-.02-.32-.04l-33.83-6.64c-.08 0-.16-.02-.23-.04zm35.87 5.45z"/></defs><g><g transform="translate(-480 -381)"><use fill="#65aacd" xlink:href="#geqva"/></g></g></svg>