<svg xmlns="http://www.w3.org/2000/svg" xmlns:xlink="http://www.w3.org/1999/xlink" width="73" height="72" viewBox="0 0 73 72"><defs><path id="dasja" d="M798.05 432.84a36.07 36.07 0 0 1-.59-30.25l.28-.65a35.96 35.96 0 0 1 48.4-17.16 35.64 35.64 0 0 1 9.67 6.89 35.97 35.97 0 0 1 0 50.83 36.03 36.03 0 0 1-57.76-9.66zm25.45-1.93c-.9-.43-2-1.07-3.13-1.97a14.02 14.02 0 0 1-4.42-6.04l-14.71 8.68a33.01 33.01 0 0 0 14.46 14.46l7.77-15.07zm10.22-2.2a12.04 12.04 0 0 0 8.53-9.3 12.05 12.05 0 0 0-2.49-9.95 10.78 10.78 0 0 0-5.94-3.97l-.2-.05a12.1 12.1 0 0 0-14.85 15.09 10.65 10.65 0 0 0 3.5 5.53l.2.18a12.05 12.05 0 0 0 11.25 2.47zm10.99-5.8c-.7 1.83-1.77 3.49-3.2 4.92a16.42 16.42 0 0 1-4.35 3.08l.04.1 7.75 15.03a32.7 32.7 0 0 0 14.46-14.46l-14.66-8.65zm-28.94-34.94c-1.77.88-5.14 2.8-8.45 6.12a31.81 31.81 0 0 0-6.02 8.33l15.15 7.79c.6-1.21 1.56-2.83 3.07-4.34a13.84 13.84 0 0 1 4.93-3.2L815.8 388zm43.58 14.45a32.84 32.84 0 0 0-14.11-14.28l-.35-.18-8.7 14.7a14.03 14.03 0 0 1 6.04 4.43 16.5 16.5 0 0 1 1.98 3.13l.06-.03zm3.81.08zm-.35 1.9zm-2 1.11zm2.4 25.98zm-7.5 10.95zm-10.84 7.41zm-26.9-.78zm-.3.43zm-1.9.35z"/></defs><g><g transform="translate(-794 -381)"><use fill="#65aacd" xlink:href="#dasja"/></g></g></svg>