<svg xmlns="http://www.w3.org/2000/svg" xmlns:xlink="http://www.w3.org/1999/xlink" width="69" height="69" viewBox="0 0 69 69"><defs><path id="lkjwa" d="M549.72 1195v51.04c0 4.7-3.81 8.51-8.51 8.51h-51.09a8.51 8.51 0 0 1-8.51-8.5V1195c0-4.7 3.81-8.51 8.51-8.51h51.09c4.7 0 8.51 3.81 8.51 8.5zm-9.78 24.73c.02-.46-.14-.92-.49-1.27l-10.94-10.94a1.7 1.7 0 0 0-2.4 2.4l9.8 9.8-9.8 9.8a1.7 1.7 0 0 0 2.4 2.4l10.94-10.93c.35-.35.51-.81.49-1.26zm-19.8-10.55a1.7 1.7 0 0 0-1.19-2.1c-.9-.24-1.85.3-2.1 1.2l-5.87 21.54a1.7 1.7 0 0 0 3.29.9zm-14.74-.1a1.7 1.7 0 0 0-2.41-2.41l-10.94 10.94c-.35.35-.51.8-.49 1.27-.02.45.14.9.49 1.26l10.94 10.94a1.7 1.7 0 0 0 2.4 0 1.7 1.7 0 0 0 0-2.41l-9.8-9.8z"/></defs><g><g transform="translate(-481 -1186)"><use fill="#65aacd" xlink:href="#lkjwa"/></g></g></svg>