<svg xmlns="http://www.w3.org/2000/svg" xmlns:xlink="http://www.w3.org/1999/xlink" width="74" height="75" viewBox="0 0 74 75"><defs><path id="x6vsa" d="M709.66 1255.05c.14.51.04 1.06-.29 1.48-.32.42-.82.67-1.35.67h-6.44l-.68-3.4-1.88-9.4a1.7 1.7 0 1 0-3.33.67l1.74 8.72.68 3.4h-3.34l-.52-3.4-.48-3.1a1.7 1.7 0 0 0-1.92-1.46c-.93.14-1.58 1-1.45 1.93l.4 2.63.53 3.4h-16.44v-20.41c0-.94-.77-1.7-1.7-1.7-.94 0-1.7.76-1.7 1.7v20.42H648.8l1.1-3.4 2.25-6.95a1.7 1.7 0 1 0-3.25-1l-2.56 7.94-1.1 3.4h-6.89c-.53 0-1.03-.24-1.35-.66a1.74 1.74 0 0 1-.29-1.48l8.04-30.18h-6.4a1.7 1.7 0 0 1 0-3.4h33.14v-36.59c0-.93.76-1.7 1.7-1.7.93 0 1.7.77 1.7 1.7v36.58h33.13a1.7 1.7 0 0 1 0 3.4h-6.45z"/></defs><g><g transform="translate(-636 -1183)"><use fill="#65aacd" xlink:href="#x6vsa"/></g></g></svg>