<svg xmlns="http://www.w3.org/2000/svg" xmlns:xlink="http://www.w3.org/1999/xlink" width="72" height="72" viewBox="0 0 72 72"><defs><path id="cspna" d="M708.93 425.9c0 5.63-4.58 10.21-10.22 10.21h-23.84v12.76h11.07c.94 0 1.7.77 1.7 1.7 0 .94-.76 1.7-1.7 1.7H660.4a1.7 1.7 0 0 1-1.7-1.7c0-.93.76-1.7 1.7-1.7h11.07v-12.76h-23.84a10.22 10.22 0 0 1-10.22-10.2v-34.04c0-5.63 4.58-10.2 10.22-10.2h51.08c5.64 0 10.22 4.57 10.22 10.2zm-69.81-28.07zm66.4 0v-3.4h-64.7v3.4zm-64.7 26.37h64.7v-3.4h-64.7zm32.35 8.5zm-34.05-38.28z"/></defs><g><g transform="translate(-637 -381)"><use fill="#65aacd" xlink:href="#cspna"/></g></g></svg>