<svg xmlns="http://www.w3.org/2000/svg" xmlns:xlink="http://www.w3.org/1999/xlink" width="24" height="24" viewBox="0 0 24 24"><defs><path id="9hpla" d="M206.4 132.18h19.2c2.65 0 2.4-.24 2.4 2.37v18.9c0 2.61.25 2.37-2.4 2.37h-19.2c-2.65 0-2.4.24-2.4-2.37v-18.9c0-2.61-.25-2.37 2.4-2.37zm-1.39 22.8H227v-21.99H205zm11.84-6.02v2h-1.76v-2zm-4.29-8.52c.18-.5.43-1.04.77-1.4.33-.37.64-.68 1.13-.88.48-.2.99-.31 1.59-.31.54 0 1.03.04 1.48.2.44.15.9.5 1.22.79.32.28.6.68.77 1.1.18.41.24.9.24 1.44 0 .35-.15.66-.24.94-.08.28-.03.53-.17.76-.13.22-.19.43-.37.63-.18.19-.43.38-.62.56-.18.17-.44.34-.62.51-.18.18-.17.37-.32.57-.14.2-.26.4-.34.64-.09.23-.13.58-.13.87v.67h-1.75v-.89a3.32 3.32 0 0 1 .85-2.1c.21-.25 1.13-1.15 1.36-1.4.5-.59.83-.96.78-1.9-.04-.62-.12-1.1-.48-1.46-.36-.35-1.04-.52-1.66-.52-.42 0-.62.05-.92.2-.3.15-.49.36-.7.61-.2.25-.34.54-.43.88-.1.34-.14.62-.14 1.02h-1.5a4 4 0 0 1 .2-1.53z"/></defs><g><g transform="translate(-204 -132)"><use fill="#c7cdd9" xlink:href="#9hpla"/></g></g></svg>