<svg xmlns="http://www.w3.org/2000/svg" xmlns:xlink="http://www.w3.org/1999/xlink" width="24" height="23" viewBox="0 0 24 23"><defs><path id="xzcaa" d="M223 95.4v8.92c0 .37-.3.68-.67.68h-4.63c-.4 0-.7-.31-.7-.68v-4.2h-3.99v4.2c0 .37-.3.68-.67.68h-4.7a.68.68 0 0 1-.66-.68v-9c0-.37.24-.61.6-.61.4 0 .4.24.4.61v8.66h3.99v-4.35c0-.37.32-.7.7-.7h4.66a.7.7 0 0 1 .67.7v4.35H222V95.4c0-.4.19-.71.58-.71.36 0 .43.3.43.7zm3.57-.8c-.14.12-.15.05-.34.05-.22 0-.43-.17-.54-.28L215 83.05l-10.27 10.97c-.27.27-.83.85-1.09.55-.29-.25-.72-.52-.45-.8l11.35-11.55c.14-.14.3-.22.5-.22.16 0 .32.07.46.22l4.48 4.57v-2.97c0-.4.16-.6.53-.6.4 0 .5.18.5.58V88l5.87 5.85c.27.28-.06.5-.3.75z"/></defs><g><g transform="translate(-203 -82)"><use fill="#c7cdd9" xlink:href="#xzcaa"/></g></g></svg>