<svg xmlns="http://www.w3.org/2000/svg" xmlns:xlink="http://www.w3.org/1999/xlink" width="70" height="69" viewBox="0 0 70 69"><defs><path id="25doa" d="M663.16 837.65l7.09 7.39-23.71 23.1a4.94 4.94 0 0 1-6.96-.17l-.3-.3a4.87 4.87 0 0 1 .16-6.92zm41.48-15.85a1.71 1.71 0 0 0-3.42 0c0 9.54-7.81 17.3-17.42 17.3a1.7 1.7 0 1 0 0 3.4 20.8 20.8 0 0 0 20.84-20.7zm-19.99-20.71a22.48 22.48 0 0 1 22.56 22.4c0 12.38-10.1 22.41-22.56 22.41a22.48 22.48 0 0 1-22.56-22.4c0-12.38 10.1-22.41 22.56-22.41z"/></defs><g><g transform="translate(-638 -801)"><use fill="#65aacd" xlink:href="#25doa"/></g></g></svg>