<svg xmlns="http://www.w3.org/2000/svg" xmlns:xlink="http://www.w3.org/1999/xlink" width="68" height="69" viewBox="0 0 68 69"><defs><path id="ushqa" d="M806.23 869.15a7.21 7.21 0 1 1 .2-14.44l7.01-7.03v-.2a7.21 7.21 0 0 1 9.96-6.67l26.07-26.13.5-3.2 9.41-6.03 3.6 3.41-5.2 9.53-3.2.5-27.07 26.4a7.23 7.23 0 0 1-6.62 9.4l-7.49 7.93a7.21 7.21 0 0 1-7.17 6.53zm57.65-7.22a7.21 7.21 0 0 1-12.72 4.64l-19.3-20.5 8.5-9.02 20.78 19.2a7.21 7.21 0 0 1 2.74 5.68zm-56.35-60.19c15.32-1.5 19.62 10.64 18.82 20.26l5 5.22-10.7 9.83-3.81-4.21c-13.61.4-21.92-7.22-20.62-19.96l9 9.22 9.12-2 2-8.63z"/></defs><g><g transform="translate(-796 -801)"><use fill="#65aacd" xlink:href="#ushqa"/></g></g></svg>