<svg xmlns="http://www.w3.org/2000/svg" xmlns:xlink="http://www.w3.org/1999/xlink" width="72" height="72" viewBox="0 0 72 72"><defs><path id="1yuka" d="M848.77 1245.07a5.54 5.54 0 1 1-3.41 1.19c-2.49-4.21-7.35-6.82-13.47-7.23v6.36a5.52 5.52 0 0 1-1.85 10.74 5.54 5.54 0 0 1-1.56-10.84v-6.26c-6.2.4-14.42 6.63-13.56 7.38l-3.16-1.33c2.77-5.16 8.2-8.5 15.05-9.32-14.56-1.8-26.37-14.2-27.22-28.98h-3.46a1.7 1.7 0 0 1-1.7-1.7c0-.93.76-1.7 1.7-1.7h5.1c.95 0 1.71.77 1.71 1.7 0 7.2 2.95 13.87 7.66 18.83v-.96c0-.94.77-1.7 1.7-1.7h34.91c.94 0 1.7.76 1.7 1.7v2.53a27.42 27.42 0 0 0 9.1-20.4c0-.93.75-1.7 1.7-1.7h4.53c.94 0 1.7.77 1.7 1.7 0 .94-.76 1.7-1.7 1.7h-2.88a30.95 30.95 0 0 1-27.51 29.02c6.71.88 12.03 4.19 14.76 9.28l.16-.01zm-2.13 5.53a2.13 2.13 0 1 0 1.5-2.03 2.15 2.15 0 0 0-1.5 2.03zm-14.47 0a2.13 2.13 0 1 0-4.26 0 2.13 2.13 0 0 0 4.26 0zm-19.44-65.94h34.91c.47 0 .92.2 1.23.54.33.33.5.79.47 1.26l-1.7 30.63c-.05.9-.8 1.6-1.7 1.6h-31.5c-.9 0-1.66-.7-1.7-1.6l-1.71-30.63c-.03-.47.14-.93.47-1.26.31-.34.76-.54 1.23-.54zm-1.42 63.81c-1.17 0-2.13.95-2.13 2.13a2.13 2.13 0 1 0 2.13-2.13zm3.61-2.06a5.51 5.51 0 0 1-3.6 9.72 5.54 5.54 0 0 1-5.54-5.53 5.54 5.54 0 0 1 9.14-4.19zm11.9-10.65zm3.37-.2zm.28-2.97zm-18.16-4.54z"/></defs><g><g transform="translate(-794 -1184)"><use fill="#65aacd" xlink:href="#1yuka"/></g></g></svg>