<svg xmlns="http://www.w3.org/2000/svg" xmlns:xlink="http://www.w3.org/1999/xlink" width="72" height="72" viewBox="0 0 72 72"><defs><path id="2qiya" d="M812.23 216.49a18.95 18.95 0 0 1 37.88 0c0 10.44-8.5 18.93-18.94 18.93a18.96 18.96 0 0 1-18.94-18.93zm24.3-5.66l.99-3.81a12.14 12.14 0 0 0-4.9-1.12v-2.97h-3.31v3.2c-3.62.72-5.71 3.04-5.71 6.02 0 3.26 2.46 4.96 6.07 6.17 2.5.85 3.59 1.65 3.59 2.94 0 1.34-1.32 2.1-3.24 2.1-2.2 0-4.2-.72-5.62-1.5l-1 3.95c1.28.75 3.47 1.35 5.74 1.46v3.2h3.31v-3.44c3.88-.68 6.01-3.24 6.01-6.25 0-3.03-1.63-4.89-5.64-6.31-2.87-1.08-4.06-1.79-4.06-2.9 0-.95.71-1.89 2.9-1.89 2.44 0 4 .77 4.88 1.15zm16.98 5.66a22.36 22.36 0 0 0-44.69 0 22.37 22.37 0 0 0 22.35 22.33 22.36 22.36 0 0 0 22.34-22.33zm-51.65-35.6h57.64a6.95 6.95 0 0 1 6.94 6.93v57.6a6.95 6.95 0 0 1-6.94 6.93h-57.64a6.95 6.95 0 0 1-6.94-6.94v-57.6a6.95 6.95 0 0 1 6.94-6.93zm0 3.4zm0 64.65z"/></defs><g><g transform="translate(-795 -181)"><use fill="#65aacd" xlink:href="#2qiya"/></g></g></svg>