<svg xmlns="http://www.w3.org/2000/svg" xmlns:xlink="http://www.w3.org/1999/xlink" width="69" height="69" viewBox="0 0 69 69"><defs><path id="szhta" d="M549.72 191.1v51.04c0 4.7-3.81 8.5-8.51 8.5h-51.09a8.51 8.51 0 0 1-8.51-8.5v-51.05c0-4.7 3.81-8.5 8.51-8.5h51.09c4.7 0 8.51 3.8 8.51 8.5zm-7.66 11.9a2.55 2.55 0 0 0-2.56-2.55h-15.32a2.55 2.55 0 1 0 0 5.1h15.32a2.55 2.55 0 0 0 2.56-2.55zm-3 26.61a2.58 2.58 0 0 0-3.64-3.64l-10.95 10.93a2.58 2.58 0 1 0 3.65 3.65zm-29.35-26.6a2.55 2.55 0 0 0-2.56-2.56h-5.1v-5.1a2.55 2.55 0 1 0-5.12 0v5.1h-5.1a2.55 2.55 0 1 0 0 5.1h5.1v5.1a2.55 2.55 0 1 0 5.11 0v-5.1h5.11a2.55 2.55 0 0 0 2.56-2.55zm-2.84 26.6a2.58 2.58 0 1 0-3.65-3.64l-3.65 3.64-3.64-3.64a2.58 2.58 0 1 0-3.65 3.64l3.65 3.65-3.65 3.64a2.58 2.58 0 1 0 3.65 3.65l3.64-3.65 3.65 3.65a2.56 2.56 0 0 0 3.65 0c1-1 1-2.64 0-3.65l-3.64-3.64z"/></defs><g><g transform="translate(-481 -182)"><use fill="#65aacd" xlink:href="#szhta"/></g></g></svg>