<svg xmlns="http://www.w3.org/2000/svg" xmlns:xlink="http://www.w3.org/1999/xlink" width="72" height="71" viewBox="0 0 72 71"><defs><path id="9bama" d="M865.4 606.72c.64.28 1.04.9 1.02 1.6-.02.62-.48 15.42-5.07 30.49-6.23 20.44-17.13 31.25-31.53 31.25-14.42 0-25.03-10.82-30.69-31.3a128.4 128.4 0 0 1-4.2-30.49c0-.63.35-1.2.91-1.5.58-.3 14.48-7.33 34.83-7.33a86.32 86.32 0 0 1 34.73 7.28zm-24.51 30.33v-14.39c0-.93-.77-1.7-1.7-1.7h-3.41v-4.22a1.7 1.7 0 0 0-3.4 0v4.23h-4.26v-4.23a1.7 1.7 0 0 0-3.4 0v4.23h-3.41c-.94 0-1.7.76-1.7 1.69v14.39c0 .93.76 1.7 1.7 1.7h6.8v14.38a1.7 1.7 0 0 0 3.41 0v-14.39h7.66c.94 0 1.7-.76 1.7-1.7zm-11.07 29.62c-28.76 0-31.26-49.42-31.48-57.34.22 7.92 2.72 57.34 31.48 57.34z"/></defs><g><g transform="translate(-795 -599)"><use fill="#65aacd" xlink:href="#9bama"/></g></g></svg>