<svg xmlns="http://www.w3.org/2000/svg" xmlns:xlink="http://www.w3.org/1999/xlink" width="58" height="71" viewBox="0 0 58 71"><defs><path id="rooca" d="M858.28 1462.38l-.06 1.12c-.07 1.54-1.55 2.53-2 2.8a51.28 51.28 0 0 1-26.4 7.28c-9.26 0-18.36-2.5-26.29-7.23l-.17-.1c-.45-.37-1.55-1.32-1.82-2.45l-.3-1.36 13.05-6.06 1.98-4.9 1.63.34v-7.55c-2.94-4.82-4.69-11.36-4.69-18.64v-14.1a8.53 8.53 0 0 1 8.51-8.55h17.01c4.7 0 8.51 3.83 8.51 8.55v14.1a38.7 38.7 0 0 1-5.6 18.96v7.2l1.36-.27 2.51 4.51zm-36.98-9.87l8.26 1.69 8.68-1.73v-3.49l-.7.67c-2.22 2-4.63 3.04-7.05 3.04a13.96 13.96 0 0 1-9.19-4.11zm8.72-3.26c1.73.16 3.5-.56 5.24-2.14 4.33-3.92 8.62-10.04 8.98-22.9-13.32-5.82-23.16-2.83-27.89-.48-1.9.94-2.97 1.77-3.12 1.89.15-.12 1.23-.95 3.12-1.9l.02-1.54-.02 1.55c.03 15.62 6.14 24.8 13.67 25.52zm-12.12-4.98z"/></defs><g><g transform="translate(-801 -1403)"><use fill="#65aacd" xlink:href="#rooca"/></g></g></svg>