<svg xmlns="http://www.w3.org/2000/svg" xmlns:xlink="http://www.w3.org/1999/xlink" width="72" height="72" viewBox="0 0 72 72"><defs><path id="k15va" d="M673.17 599.45a35.78 35.78 0 0 1 35.76 35.73 35.78 35.78 0 0 1-35.76 35.73 35.78 35.78 0 0 1-35.76-35.73 35.78 35.78 0 0 1 35.76-35.73zm28.17 35.73a1.7 1.7 0 0 0-3.42 0 24.76 24.76 0 0 1-24.75 24.72 1.7 1.7 0 1 0 0 3.42 28.19 28.19 0 0 0 28.17-28.14zm-6.81 0a1.7 1.7 0 0 0-3.42 0c0 9.88-8.05 17.92-17.94 17.92a1.7 1.7 0 0 0 0 3.42 21.37 21.37 0 0 0 21.36-21.34zm-15.34.13a6.15 6.15 0 1 0-12.29 0 6.15 6.15 0 0 0 12.3 0zm-4.31-26.57c0-.93-.76-1.7-1.71-1.7a28.19 28.19 0 0 0-28.16 28.14 1.7 1.7 0 0 0 3.42 0 24.76 24.76 0 0 1 24.74-24.73c.95 0 1.7-.76 1.7-1.7zm0 6.81c0-.94-.76-1.7-1.71-1.7a21.36 21.36 0 0 0-21.35 21.33 1.7 1.7 0 0 0 3.42 0c0-9.88 8.04-17.92 17.93-17.92.95 0 1.7-.76 1.7-1.71zm30.63 19.63zm-32.34-32.31zm-32.34 32.31z"/></defs><g><g transform="translate(-637 -599)"><use fill="#65aacd" xlink:href="#k15va"/></g></g></svg>