<svg version="1" xmlns="http://www.w3.org/2000/svg" width="682.667" height="682.667" viewBox="0 0 512.000000 512.000000"><path d="M331.7 4.6c-.1.1-4.5.4-9.7.8-5.2.3-10.5.8-11.7 1-1.1.3-4.3.8-7 1.1-12 1.7-32.1 7.2-42.1 11.5l-5.1 2.2-6.3-2.5c-9.8-3.8-19.8-7-25.3-8.1-1.6-.4-4.1-.9-5.5-1.1-8.1-1.7-12.1-2.4-17-3.1-9.5-1.3-50.8-1-60 .4-32.2 4.8-58.1 16.6-75.8 34.5-13.3 13.4-19.3 23.8-24.6 42.9-1.8 6.2-2.2 8.7-3.3 19.3-1.1 11.2-.4 39.4 1.2 49 2.3 13.8 2.5 14.5 4.1 21 2.5 9.7 8.1 23.1 15.1 36.5 3.6 6.9 6.9 12.9 7.3 13.5 1.8 2.2 11.3 20.9 14.1 27.7 3.5 8.3 8.7 23.9 9.5 28.3.3 1.6.9 4.8 1.4 7 3.1 13.8 4 24.8 4.6 54.5.3 14 .6 27.5.8 30 .7 8.9 1.8 21.4 2.1 22.9.1.9.6 4.3 1 7.6.4 3.2.9 6.8 1.1 8 6.9 36.3 13.1 53.6 26.9 74.5 10.3 15.6 18 21.3 30.7 22.8 18.8 2.2 32.9-6.2 38.8-23.2 3.1-8.8 3.3-10.2 4.5-56.1 1.1-40 4.3-61 13.6-88.8 10.1-30.5 19.6-43.2 35.9-48.2 4.6-1.4 8.5-1.4 13.8.1 11.9 3.3 22.8 19.8 32.6 49.5 3.3 10.1 7.8 26.8 9 33.9.3 1.9.8 4.6 1.1 6 .3 1.4 1 5.9 1.6 10 .5 4.1 1.2 8.5 1.4 9.8 1.6 9.3 2 29.9 1.1 53.2-.4 12.9-.2 16.8 1.3 23 2.3 10 6.4 17.2 12.8 22.9 6.6 5.9 13.2 8.4 22.1 8.2 13.2-.3 19.3-2.8 28.1-12 5.1-5.3 13.4-17.8 18.4-27.7 7.1-14.3 14.6-40.9 17.7-62.9.6-4.4 1.3-9.1 1.5-10.5.4-2.4 1.1-10.9 2.1-23.5.2-3.3.6-16.6.9-29.5.6-30.1 1.1-36 4-52.5 3.5-19.8 13.1-43.9 26.6-67 14.6-25.2 22.8-47.7 25.3-69.5.3-2.5.8-7.2 1.2-10.5 1.5-13.3.6-42.1-1.6-50.5-.5-1.9-1.1-4.6-1.4-6-.2-1.4-1.2-4.8-2.1-7.5-9.7-28.6-31.7-50.1-63.5-61.8-8.8-3.3-18-6-24-7-1.4-.3-4.1-.8-6-1.2-8.2-1.5-20.8-2.6-33.3-2.9-5.4-.1-9.9-.1-10 0z"/></svg>